<svg width="512" height="512" viewBox="0 0 512 512" xmlns="http://www.w3.org/2000/svg">
  <!-- Blue background (#2196F3) with rounded corners -->
  <rect width="512" height="512" fill="#2196F3" rx="24"/>
  
  <!-- Js in white flowing cursive/script style - matching the provided design -->
  <g fill="white" stroke="none">
    <!-- J letter - capital, with flowing script style, loop at top -->
    <path d="M 140 110 
             C 140 90, 160 75, 180 80
             C 200 85, 215 100, 220 120
             C 225 140, 225 160, 220 180
             C 215 200, 200 210, 180 210
             L 160 210
             C 140 210, 130 220, 130 240
             L 130 340
             C 130 360, 120 370, 100 370
             C 80 370, 70 360, 70 340
             L 70 240
             C 70 200, 90 170, 120 160
             C 150 150, 180 160, 200 180
             C 220 200, 220 220, 220 240
             L 220 340
             C 220 360, 210 370, 190 370
             C 170 370, 160 360, 160 340
             L 160 240
             C 160 220, 150 210, 130 210
             C 110 210, 100 220, 100 240
             Z" 
          fill="white"/>
    
    <!-- s letter (lowercase) - flowing cursive, smoothly connected to J -->
    <path d="M 200 240 
             C 220 240, 230 250, 230 270
             C 230 290, 220 300, 200 300
             C 180 300, 170 290, 170 270
             C 170 250, 180 240, 200 240
             Z
             M 250 270 
             C 250 290, 260 300, 280 300
             C 300 300, 310 290, 310 270
             C 310 250, 300 240, 280 240
             C 260 240, 250 250, 250 270
             Z
             M 320 270 
             C 320 290, 330 300, 350 300
             C 370 300, 380 290, 380 270
             C 380 250, 370 240, 350 240
             C 330 240, 320 250, 320 270
             Z" 
          fill="white"/>
  </g>
</svg>
